<?xml version="1.0" encoding="UTF-8" standalone="no"?>
  <svg
    xmlns="http://www.w3.org/2000/svg"
    xmlns:xlink="http://www.w3.org/1999/xlink"
    version="1.1"
    viewBox="0 0 156 180">
  <g id="g10" transform="matrix(1.25,0,0,-1.25,0,180)" style="line-height:1.25;font-family:Arial;fill:#f8fafa">
    <path id="path3176" style="fill:#001c8c" d="M 62.4,72 0,108 l 0,0 62.4,36 c 0,0 0.02874,-71.999977 0,-72 z" />
    <path id="path3178" style="fill:#001f99" d="m 62.399973,72 62.399997,36 0,0 -62.399997,36 c -0.300945,0 -0.298879,-71.999977 0,-72 z" />
    <path id="path2988" style="fill:#001773" d="M 62.4,0 0,36 0,36 62.4,72 c 0,0 0.02874,-71.999977240587 0,-72 z" />
    <path id="path3180" style="fill:#001a80" d="M 62.376794,72.005095 C 42.644373,58.943991 22.551707,46.242983 0,36 l 0,0 0.02308996,71.97025 C 1.223723,109.17038 64.033024,73.67117 62.376794,72.005095 z" />
    <path id="path3182" style="fill:#001c8c" d="M 62.423396,71.994906 C 82.155817,85.05601 102.24848,97.757018 124.80019,108 l 0,0 -0.0231,-71.970249 c -1.20063,-1.20013 -64.009934,34.29908 -62.353704,35.965155 z" />
    <path id="path3174" style="fill:#001a80" d="m 62.399973,0 62.399997,36 0,0 -62.399997,36 c -1.498971,-1.124229 -0.7564,-72.5457219 0,-72 z" />
    <text id="text-top" style="font-size:15px" x="62" y="-86.592964" text-anchor="middle" transform="scale(1,-1)">###</text>
    <text id="text-middle" style="font-size:29px" x="62" y="-61.310406" text-anchor="middle" transform="scale(1,-1)">###</text>
    <text id="text-bottom" style="font-size:15px" x="62" y="-46.593002" text-anchor="middle" transform="scale(1,-1)">###</text>
  </g>
  <g id="g937" transform="translate(-103.71785,-5.5940737)">
    <path id="path903" style="fill:#f8fafa" d="m 163.23799,45.421435 c -1.94626,-0.227648 -3.6975,-1.68871 -4.39931,-3.670329 -0.35587,-1.004861 -0.35835,-2.790324 -0.006,-3.865789 0.45915,-1.398927 1.69371,-2.838946 2.61047,-3.044933 0.54781,-0.123081 1.14479,0.13972 1.38867,0.611323 0.13181,0.254883 0.14577,0.840311 0.0255,1.070785 -0.047,0.09006 -0.37962,0.469452 -0.73916,0.843001 -0.82867,0.860965 -0.99141,1.228757 -1.03428,2.337601 -0.0346,0.894127 0.11019,1.452354 0.5437,2.096015 0.44088,0.654658 1.00752,1.046434 1.81684,1.256152 0.57227,0.148291 0.8957,0.149264 1.45484,0.0046 0.89984,-0.233176 1.58553,-0.808476 2.00931,-1.685816 l 0.2717,-0.562507 0.0375,-4.612495 0.0375,-4.612507 0.16728,-0.234503 c 0.25355,-0.355464 0.62458,-0.499964 1.19112,-0.46389 0.40251,0.02563 0.51282,0.06475 0.71035,0.25187 0.12862,0.12184 0.26756,0.305899 0.30877,0.409024 0.10996,0.275103 0.15932,5.483519 0.0736,7.762509 -0.0787,2.092377 -0.1062,2.245165 -0.57841,3.209495 -0.43603,0.8905 -1.37392,1.838054 -2.33835,2.362456 -0.92281,0.501778 -2.20403,0.695876 -3.55235,0.538167 z m 12.34298,-0.07564 c -1.64261,-0.249138 -3.04869,-1.290182 -3.81693,-2.826014 -1.03528,-2.069674 -0.7881,-4.621867 0.6165,-6.365356 0.67943,-0.843365 1.73281,-1.536461 2.80944,-1.848525 0.73021,-0.211652 2.43046,-0.226572 3.05348,-0.02678 1.73787,0.557254 2.84112,1.4861 3.59272,3.024815 0.46714,0.956354 0.49478,1.198375 0.49478,4.33238 0,2.806207 -0.002,2.854084 -0.16504,3.115364 -0.52724,0.847691 -1.79942,0.76934 -2.26873,-0.139731 -0.0663,-0.128357 -0.0846,-0.880464 -0.0696,-2.85 0.0228,-2.983585 0.008,-3.100671 -0.50394,-3.87563 -0.32256,-0.488653 -0.38564,-0.559097 -0.74273,-0.829451 -0.35655,-0.269953 -0.61295,-0.388068 -1.14741,-0.528578 -0.52994,-0.139308 -0.85761,-0.13171 -1.45428,0.03376 -0.93218,0.258488 -1.55144,0.78599 -2.02097,1.721495 -0.24618,0.490519 -0.25234,0.525672 -0.25234,1.440294 0,1.057076 0.0656,1.293204 0.56196,2.024187 0.43124,0.635056 1.16966,1.120094 1.8943,1.244297 0.15468,0.02655 0.28124,0.06488 0.28124,0.08525 0,0.02037 -0.0835,0.136287 -0.18552,0.257561 -0.23662,0.281202 -0.35983,0.737643 -0.29585,1.09603 0.0362,0.202781 0.15334,0.378501 0.42422,0.636383 l 0.3742,0.356257 -0.40227,-0.0103 c -0.22126,-0.0057 -0.57102,-0.03616 -0.77727,-0.0674 z m 18.74999,0.0046 c -1.00257,-0.164872 -1.73057,-0.490599 -2.47212,-1.106133 -0.85225,-0.707388 -1.50085,-1.736188 -1.80981,-2.870654 -0.20225,-0.742689 -0.18985,-2.565995 0.022,-3.225 0.64125,-1.995397 1.93201,-3.280533 3.857,-3.840225 0.76299,-0.221836 2.26758,-0.23345 3.02798,-0.02334 1.40015,0.38681 2.59601,1.282287 3.30668,2.476097 0.19758,0.331906 0.32867,0.616003 0.56471,1.223779 0.19993,0.514823 0.29112,1.73763 0.29112,3.903803 0,2.404131 -0.0364,2.686443 -0.39629,3.070587 -0.48416,0.516849 -1.41348,0.509182 -1.88198,-0.01556 -0.35141,-0.393562 -0.36293,-0.511357 -0.30824,-3.151902 0.0555,-2.680596 0.0364,-2.896664 -0.32153,-3.627556 -0.43842,-0.895374 -1.20888,-1.470812 -2.24514,-1.676845 -1.4626,-0.290802 -3.03566,0.749029 -3.47742,2.29865 -0.15177,0.532389 -0.13263,1.55525 0.0386,2.062499 0.43937,1.301626 1.43176,2.080372 2.74199,2.151709 0.73212,0.03982 1.00466,0.121102 1.29201,0.385127 0.37731,0.346668 0.45367,1.032943 0.16412,1.474875 -0.27237,0.415669 -1.41876,0.650389 -2.39363,0.490083 z m -7.43954,-0.14795 c -0.96585,-0.270617 -1.80424,-0.97297 -2.25128,-1.886001 -0.44158,-0.901862 -0.47168,-1.148804 -0.47168,-3.869645 0,-1.819494 -0.0237,-2.491568 -0.0901,-2.557927 -0.0506,-0.05058 -0.29286,-0.08994 -0.55286,-0.08994 -0.43138,0 -0.48518,-0.0198 -0.79125,-0.291421 -0.32307,-0.286706 -0.32839,-0.299167 -0.32797,-0.768757 6.8e-4,-0.762017 0.34171,-1.09057 1.22228,-1.177652 l 0.5023,-0.04966 0.0375,-1.425004 c 0.0346,-1.3145 0.0507,-1.446186 0.20743,-1.698266 0.24065,-0.386978 0.59876,-0.53768 1.18847,-0.500131 0.40251,0.02563 0.51281,0.06475 0.71035,0.25187 0.12862,0.12184 0.27263,0.3059 0.32004,0.409025 0.061,0.132717 0.0971,1.677747 0.1237,5.287498 l 0.0375,5.100004 0.17808,0.262847 c 0.3124,0.461144 0.49433,0.549565 1.20484,0.585576 0.90512,0.04589 1.27637,0.270068 1.43737,0.868026 0.18086,0.671651 -0.11122,1.284988 -0.74044,1.55469 -0.41852,0.179404 -1.29415,0.177115 -1.94439,-0.0046 z" />
    <path id="path899" style="fill:#f0c612" d="m 203.25596,44.985439 c -0.44044,-0.272048 -0.525,-0.431072 -0.525,-0.987285 0,-0.441646 0.0255,-0.538351 0.1875,-0.711748 0.29559,-0.316344 0.58185,-0.432971 0.95849,-0.390517 0.42924,0.0484 0.68624,0.239171 0.90247,0.670003 0.15062,0.300094 0.16293,0.384704 0.0935,0.642562 -0.20807,0.772716 -1.00439,1.155361 -1.61695,0.776985 z m -39.23284,-9.089917 c -0.44773,-0.13306 -0.85466,-0.698828 -0.85466,-1.188271 0,-0.731475 0.6853,-1.346174 1.38398,-1.241401 0.37373,0.05607 0.63515,0.211079 0.87927,0.521415 0.24213,0.30783 0.25144,1.123148 0.0164,1.438451 -0.30431,0.408254 -0.9338,0.615797 -1.42499,0.469806 z" />
    <path id="path897" style="fill:#6886cb" d="m 176.99754,45.363715 c 0.0208,-0.03376 -0.0761,-0.102645 -0.21543,-0.152994 -0.13935,-0.05035 -0.35693,-0.209569 -0.48351,-0.35374 -0.19141,-0.218002 -0.23013,-0.325395 -0.23013,-0.638225 0,-0.42519 0.13396,-0.736167 0.411,-0.954089 0.23223,-0.182677 0.23511,-0.219959 0.0203,-0.262745 -0.0928,-0.01842 0.0843,-0.01613 0.39376,0.0057 0.85667,0.05905 1.24046,0.329434 1.35758,0.956366 0.0696,0.37222 -0.0374,0.752759 -0.2917,1.037326 -0.20842,0.233301 -1.08646,0.564589 -0.96181,0.362894 z m 3.04025,-0.369879 -0.18183,-0.20625 0.20625,0.181819 c 0.19277,0.169952 0.24065,0.230681 0.18183,0.230681 -0.0134,0 -0.10619,-0.0928 -0.20625,-0.20625 z m 9.26818,-0.01877 c 0.0746,-0.0825 0.15261,-0.150007 0.17325,-0.150007 0.0206,0 -0.0236,0.06751 -0.0983,0.150007 -0.0747,0.08251 -0.15263,0.149996 -0.17325,0.149996 -0.0206,0 0.0236,-0.06751 0.0983,-0.149996 z m 11.43749,0.04669 c 0,-0.01556 0.0591,-0.07461 0.13126,-0.131252 0.11895,-0.09326 0.1216,-0.09063 0.0283,0.02826 -0.098,0.124936 -0.15956,0.164655 -0.15956,0.102988 z m -15.53068,-0.702936 -0.18182,-0.20625 0.20625,0.18183 c 0.1134,0.100013 0.20625,0.192816 0.20625,0.20625 0,0.05882 -0.0608,0.01144 -0.23068,-0.18183 z m 15.93949,-2.56874 c 0,-1.464381 0.0103,-2.063438 0.0223,-1.331252 0.0122,0.732185 0.0122,1.930309 0,2.662492 -0.0122,0.732197 -0.0223,0.133129 -0.0223,-1.33124 z m -40.84337,2.418644 c -0.0933,-0.118951 -0.0906,-0.121606 0.0283,-0.02838 0.0722,0.05664 0.13126,0.115678 0.13126,0.131252 0,0.06179 -0.0616,0.02197 -0.15957,-0.102873 z m 19.38936,-0.918753 c 0,-0.598117 0.0117,-0.842805 0.0259,-0.543751 0.0142,0.299064 0.0142,0.788439 0,1.087503 -0.0142,0.299065 -0.0259,0.05436 -0.0259,-0.543752 z m 11.73953,0.768757 -0.18183,-0.20625 0.20625,0.181819 c 0.19278,0.169941 0.24065,0.230681 0.18183,0.230681 -0.0134,0 -0.10619,-0.0928 -0.20625,-0.20625 z m -31.53654,-0.262492 -0.22029,-0.243749 0.24375,0.220279 c 0.22721,0.205334 0.27823,0.267218 0.22029,0.267218 -0.0129,0 -0.1226,-0.109624 -0.24375,-0.243748 z M 182.4767,41.78749 c -4e-5,-1.237499 0.0103,-1.75428 0.0228,-1.148392 0.0126,0.605888 0.0126,1.618393 6e-5,2.250005 -0.0126,0.631611 -0.0229,0.135886 -0.0229,-1.101613 z m -13.83324,1.584115 c 0,-0.01556 0.059,-0.07461 0.13125,-0.131252 0.11896,-0.09326 0.12161,-0.09063 0.0283,0.02826 -0.0979,0.124924 -0.15957,0.164654 -0.15957,0.102987 z m -5.26875,-0.396448 c 0.0516,-0.02083 0.13594,-0.02083 0.1875,0 0.0516,0.02083 0.009,0.03788 -0.0937,0.03788 -0.1031,0 -0.14532,-0.01705 -0.0937,-0.03788 z m 1.42969,-0.0011 c 0.0541,-0.02163 0.11883,-0.019 0.14375,0.0057 0.0249,0.02495 -0.0193,0.04268 -0.0984,0.03936 -0.0873,-0.0034 -0.10516,-0.0214 -0.0453,-0.04531 z m 30.51864,-0.0034 c 0.13314,-0.01659 0.3694,-0.01682 0.525,-6.07e-4 0.1556,0.01625 0.0467,0.02975 -0.24208,0.0301 -0.28874,2.97e-4 -0.41606,-0.01293 -0.28292,-0.02952 z m 3.12205,-1.033129 c -2.3e-4,-0.371246 0.0125,-0.532583 0.0282,-0.358511 0.0158,0.174061 0.0159,0.477817 4.6e-4,0.675004 -0.0156,0.197176 -0.0284,0.0547 -0.0286,-0.316493 z m -36.44626,0.243749 -0.14286,-0.168751 0.16875,0.142879 c 0.15858,0.134262 0.20288,0.194623 0.14287,0.194623 -0.0142,0 -0.0902,-0.07598 -0.16876,-0.168751 z m 31.31395,-0.112483 -0.18182,-0.206249 0.20625,0.181818 c 0.1134,0.100012 0.20625,0.192816 0.20625,0.20625 0,0.05882 -0.0608,0.01144 -0.23068,-0.181819 z m -6.55898,-5.531121 c 10e-6,-2.640007 0.009,-3.709122 0.0208,-2.375821 0.0114,1.3333 0.0114,3.493294 -1e-5,4.800001 -0.0114,1.306695 -0.0208,0.215816 -0.0208,-2.42418 z m -16.95011,-0.299968 c 2e-5,-2.51625 0.009,-3.534764 0.0209,-2.263358 0.0116,1.271405 0.0116,3.330161 -1e-5,4.575007 -0.0115,1.244846 -0.0209,0.204602 -0.0209,-2.311649 z m 19.99569,4.343755 c 0.003,-0.08742 0.0214,-0.105162 0.0453,-0.04531 0.0216,0.05412 0.019,0.118824 -0.006,0.143747 -0.0249,0.02495 -0.0427,-0.01934 -0.0394,-0.09841 z M 171.0553,40.47515 c 0,-0.103102 0.0171,-0.145304 0.0379,-0.09372 0.0208,0.05161 0.0208,0.135933 0,0.187495 -0.0208,0.05161 -0.0379,0.0092 -0.0379,-0.09372 z m 8.71217,-0.525009 c 0,-0.268123 0.0136,-0.377816 0.0302,-0.243749 0.0166,0.134068 0.0166,0.353442 0,0.487499 -0.0166,0.134067 -0.0302,0.02437 -0.0302,-0.24375 z M 192.4417,39.76265 c 4.6e-4,-0.247501 0.0144,-0.339709 0.0311,-0.204911 0.0167,0.1348 0.0164,0.337296 -7.7e-4,0.449999 -0.0171,0.112714 -0.0308,0.0023 -0.0303,-0.245088 z m -2.70433,0 c 8.4e-4,-0.165008 0.0163,-0.223677 0.0341,-0.130381 0.018,0.09326 0.0173,0.228301 -0.001,0.300002 -0.0188,0.07175 -0.0334,-0.0046 -0.0326,-0.169621 z M 158.4553,39.42516 c 0,-0.103102 0.0171,-0.145316 0.0379,-0.09372 0.0208,0.05161 0.0208,0.135945 0,0.187506 -0.0208,0.05161 -0.0379,0.0092 -0.0379,-0.09372 z m 12.59409,-0.418685 c 0.003,-0.08743 0.0214,-0.105162 0.0453,-0.04532 0.0216,0.05413 0.019,0.118825 -0.006,0.143748 -0.0249,0.02495 -0.0427,-0.01934 -0.0394,-0.09841 z m 8.62499,0 c 0.003,-0.08743 0.0214,-0.105162 0.0453,-0.04532 0.0216,0.05413 0.019,0.118825 -0.006,0.143748 -0.0249,0.02495 -0.0427,-0.01934 -0.0394,-0.09841 z m 10.125,-0.07507 c 0.003,-0.08742 0.0214,-0.105161 0.0453,-0.04531 0.0216,0.05413 0.019,0.118825 -0.006,0.143748 -0.0249,0.02495 -0.0427,-0.01934 -0.0394,-0.09841 z m -27.68092,-1.493551 c 0.13994,-0.144378 0.2713,-0.262504 0.29192,-0.262504 0.0206,0 -0.077,0.118126 -0.21691,0.262504 -0.13994,0.144377 -0.2713,0.262504 -0.29194,0.262504 -0.0206,0 0.077,-0.118127 0.21693,-0.262504 z m 30.975,0.234182 c 0,-0.01556 0.0591,-0.07461 0.13126,-0.131252 0.11895,-0.09326 0.1216,-0.09063 0.0283,0.02826 -0.0979,0.124924 -0.15956,0.164655 -0.15956,0.102988 z m 4.41544,-0.327967 c -0.0933,-0.118951 -0.0906,-0.121605 0.0283,-0.02826 0.12494,0.09795 0.16467,0.159562 0.10299,0.159562 -0.0156,0 -0.0746,-0.05905 -0.13125,-0.131252 z m -13.75294,-0.393768 -0.3,-0.05367 0.27682,-0.0103 c 0.15226,-0.0057 0.29769,0.02312 0.32319,0.06431 0.0255,0.0412 0.0359,0.07026 0.0231,0.06431 -0.0127,-0.0057 -0.15817,-0.03479 -0.32317,-0.06431 z m -7.14271,-0.428818 c 0.11397,-0.01728 0.28274,-0.01682 0.375,10e-4 0.0922,0.01785 -0.001,0.03193 -0.20728,0.03135 -0.20625,-6.07e-4 -0.28173,-0.01511 -0.16772,-0.03238 z m 18.67499,0 c 0.11398,-0.01728 0.28276,-0.01682 0.375,10e-4 0.0922,0.01785 -0.001,0.03193 -0.20727,0.03135 -0.20625,-6.07e-4 -0.28173,-0.01511 -0.16773,-0.03238 z m 4.62066,-0.377831 c -0.0933,-0.118951 -0.0906,-0.121605 0.0283,-0.02826 0.12494,0.09795 0.16467,0.159562 0.10299,0.159562 -0.0156,0 -0.0746,-0.05905 -0.13125,-0.131252 z m -19.11543,-0.431256 c -0.18219,-0.185629 -0.31437,-0.337502 -0.29373,-0.337502 0.0206,0 0.18654,0.151873 0.36873,0.337502 0.18217,0.185618 0.31435,0.337491 0.29373,0.337491 -0.0206,0 -0.18656,-0.151873 -0.36873,-0.337491 z m 10.27499,0.30918 c 0,-0.01556 0.0591,-0.07461 0.13126,-0.131252 0.11895,-0.09326 0.1216,-0.09063 0.0283,0.02826 -0.0979,0.124924 -0.15956,0.164654 -0.15956,0.102987 z m -18.4125,-0.346679 c 0.16112,-0.165009 0.30982,-0.300003 0.33044,-0.300003 0.0206,0 -0.0943,0.134994 -0.25543,0.300003 -0.16112,0.164998 -0.30982,0.299992 -0.33045,0.299992 -0.0206,0 0.0943,-0.134994 0.25544,-0.299992 z m 26.84288,-0.01876 -0.14288,-0.168751 0.16875,0.142878 c 0.15859,0.134262 0.2029,0.194624 0.14288,0.194624 -0.0142,0 -0.0902,-0.07598 -0.16875,-0.168751 z m -7.90538,-0.159555 c 0,-0.01556 0.0591,-0.07461 0.13125,-0.131252 0.11895,-0.09326 0.12161,-0.09063 0.0283,0.02826 -0.098,0.124935 -0.15958,0.164665 -0.15958,0.102987 z m -31.27499,-0.07507 c 0,-0.01556 0.059,-0.07461 0.13125,-0.131241 0.11895,-0.09326 0.1216,-0.09063 0.0283,0.02826 -0.0979,0.124935 -0.15956,0.164665 -0.15956,0.102987 z m 6.75591,-0.165467 c 0.003,-0.08742 0.0214,-0.105161 0.0453,-0.04531 0.0216,0.05413 0.019,0.118836 -0.006,0.143759 -0.0249,0.02495 -0.0427,-0.01934 -0.0394,-0.09841 z m 31.85951,-0.08754 c -0.0933,-0.118962 -0.0906,-0.121606 0.0283,-0.02838 0.12493,0.09795 0.16466,0.159574 0.10298,0.159574 -0.0156,0 -0.0746,-0.05905 -0.13125,-0.131252 z m -36.33505,-0.112451 -0.14288,-0.16874 0.16875,0.142868 c 0.15859,0.134273 0.2029,0.194623 0.14288,0.194623 -0.0142,0 -0.0902,-0.07598 -0.16875,-0.168751 z m 4.49484,-0.881242 c 0,-0.309375 0.0133,-0.435935 0.0294,-0.281248 0.0161,0.154688 0.0161,0.407809 0,0.562495 -0.0161,0.154688 -0.0294,0.02815 -0.0294,-0.281247 z m 10.31072,-0.126239 c 0.0541,-0.02163 0.11883,-0.019 0.14375,0.0057 0.0249,0.02495 -0.0193,0.04268 -0.0984,0.03936 -0.0873,-0.0034 -0.10517,-0.0214 -0.0453,-0.04531 z m -10.33002,-1.267515 c 0.003,-0.08743 0.0214,-0.105162 0.0453,-0.04531 0.0216,0.05412 0.019,0.118836 -0.006,0.143759 -0.0249,0.02495 -0.0427,-0.01934 -0.0394,-0.09841 z m 2.3134,-1.662497 -0.18181,-0.20625 0.20625,0.181824 c 0.19277,0.169942 0.24064,0.230676 0.18181,0.230676 -0.0134,0 -0.10619,-0.09282 -0.20625,-0.20625 z m 16.95,0 -0.18181,-0.20625 0.20625,0.181824 c 0.19277,0.169942 0.24063,0.230676 0.18181,0.230676 -0.0134,0 -0.10619,-0.09282 -0.20625,-0.20625 z m -17.97557,-0.37045 c 0.0722,-0.01887 0.19032,-0.01887 0.2625,0 0.0722,0.01887 0.0132,0.0343 -0.13125,0.0343 -0.14437,0 -0.20343,-0.01544 -0.13125,-0.0343 z m 16.91338,-0.0014 c 0.0933,-0.01794 0.22829,-0.01726 0.29999,0.0015 0.0718,0.01878 -0.005,0.03345 -0.16962,0.03261 -0.16499,-8.31e-4 -0.22366,-0.01619 -0.13037,-0.03413 z" />
    <path id="path895" style="fill:#cc5350" d="m 203.18877,45.029998 c -0.51802,-0.296982 -0.71717,-0.983326 -0.46233,-1.593276 0.0981,-0.234709 0.4934,-0.561179 0.67952,-0.561179 0.0412,0 -0.0262,0.06259 -0.15,0.138987 -0.44044,0.272059 -0.525,0.431072 -0.525,0.987285 0,0.441714 0.0254,0.538294 0.1875,0.711519 0.25343,0.270903 0.42629,0.35826 0.825,0.41694 l 0.3375,0.04966 -0.3,0.0092 c -0.18675,0.0057 -0.41029,-0.05447 -0.59219,-0.158738 z m 1.12719,-0.04886 c 0.29292,-0.178615 0.45873,-0.41044 0.55907,-0.781641 0.0668,-0.247377 0.0533,-0.336746 -0.0956,-0.633603 -0.21633,-0.431026 -0.45432,-0.606986 -0.92825,-0.68631 -0.31701,-0.0531 -0.33319,-0.06328 -0.1126,-0.07083 0.14165,-0.0046 0.4019,0.06111 0.57831,0.146448 0.41552,0.201146 0.72503,0.776572 0.6531,1.214202 -0.0523,0.317991 -0.56238,0.955702 -0.76411,0.955244 -0.0783,-1.49e-4 -0.0372,-0.05367 0.11008,-0.143565 z m -16.75659,-8.270907 c -0.29139,-0.180034 -0.54083,-0.629918 -0.54111,-0.975991 -9.4e-4,-1.111111 1.56741,-1.551978 2.12495,-0.59734 0.18649,0.319319 0.18775,0.895764 0.002,1.212771 -0.28717,0.491846 -1.08172,0.672418 -1.5865,0.36056 z M 163.69139,35.80631 c -0.31084,-0.210438 -0.59792,-0.741591 -0.59792,-1.106247 0,-0.526541 0.57423,-1.28167 0.96734,-1.272069 0.066,0.0011 0.0189,0.04818 -0.10482,0.103331 -0.44967,0.200712 -0.7875,0.705202 -0.7875,1.175981 0,0.490187 0.40834,1.057145 0.85466,1.186635 0.16808,0.04875 0.18899,0.06946 0.0752,0.07427 -0.0867,0.0034 -0.26983,-0.06912 -0.40692,-0.161988 z m 1.03144,0.09589 c 0.61605,-0.146368 0.88313,-0.509503 0.88313,-1.200721 0,-0.399661 -0.0324,-0.533785 -0.1715,-0.710672 -0.22191,-0.282094 -0.43086,-0.425625 -0.72028,-0.494741 -0.21752,-0.05195 -0.22008,-0.05618 -0.0381,-0.06339 0.23063,-0.0092 0.62784,0.244527 0.84763,0.541166 0.22415,0.302509 0.22433,1.148918 3.1e-4,1.451645 -0.21989,0.297131 -0.61704,0.550915 -0.84795,0.541829 -0.17671,-0.0069 -0.1723,-0.01304 0.0467,-0.06511 z" />
  </g>
  <g id="g947" transform="translate(-173.5427,72.886497)">
    <path id="path919" style="fill:#f8fafa" d="m 249.11968,79.539749 c -0.23432,-0.11363 -0.35953,-0.242742 -0.48751,-0.502511 l -0.17219,-0.349552 -0.0211,-4.535998 c -0.0259,-5.573518 0.0185,-6.025176 0.71734,-7.295689 1.10617,-2.011256 3.20973,-3.081218 5.57306,-2.8347 1.91449,0.199693 3.50112,1.305357 4.36463,3.041545 0.45807,0.920996 0.53405,1.288547 0.53488,2.587347 8.4e-4,1.306512 -0.089,1.752906 -0.53516,2.65819 -0.32734,0.664236 -0.48082,0.886792 -0.95146,1.379531 -1.01466,1.062306 -2.23657,1.576077 -3.75728,1.579807 -0.59157,0.0011 -0.59683,-2.29e-4 -0.375,-0.117154 0.30379,-0.160157 0.55493,-0.39593 0.68213,-0.6404 0.20628,-0.396468 0.0956,-1.0311 -0.24841,-1.423884 -0.10093,-0.115289 -0.0821,-0.133689 0.21529,-0.209065 1.02479,-0.259837 1.72165,-0.806633 2.17198,-1.704273 0.79327,-1.581181 0.21339,-3.590011 -1.29074,-4.471494 -0.51662,-0.302761 -1.34955,-0.455606 -1.90525,-0.349597 -1.33375,0.254414 -2.20389,1.061722 -2.55067,2.36645 -0.10402,0.391581 -0.11249,1.010308 -0.0706,5.206882 l 0.0475,4.762502 -0.17558,0.337193 c -0.32682,0.627653 -1.08046,0.847394 -1.76588,0.51487 z m -38.9472,-4.338978 c -2.09114,-0.315326 -3.63591,-1.421481 -4.4162,-3.162281 -0.63554,-1.417831 -0.62247,-3.5747 0.0303,-5.000518 0.61206,-1.33694 1.74656,-2.33315 3.22341,-2.830512 0.53726,-0.180926 0.71372,-0.202645 1.68749,-0.207646 0.85199,-0.0046 1.18497,0.02414 1.53751,0.131653 1.14722,0.349883 1.96776,0.905615 2.57827,1.746212 0.33399,0.45984 0.75922,1.353543 0.75922,1.595599 0,0.350833 -0.23587,0.667314 -0.83979,1.126776 -1.59216,1.211306 -1.82513,1.390012 -1.8602,1.426905 -0.0206,0.02163 -0.18249,0.152318 -0.35971,0.290287 -0.33968,0.26445 -0.45639,0.271396 -0.32137,0.01911 0.13052,-0.243874 0.094,-0.63834 -0.0917,-0.989367 -0.21923,-0.414549 -0.70361,-0.691505 -1.1247,-0.643055 -0.24846,0.02861 -0.2728,0.01819 -0.19014,-0.08147 0.0522,-0.06282 0.49253,-0.417351 0.97867,-0.787867 0.48613,-0.370503 0.88388,-0.718659 0.88388,-0.773688 0,-0.160112 -0.52483,-0.548272 -0.93513,-0.691608 -0.48559,-0.169655 -1.51249,-0.166943 -2.00879,0.0057 -1.44206,0.500474 -2.1865,1.81828 -2.04093,3.612863 0.12329,1.519822 1.14814,2.611903 2.7471,2.927285 0.60901,0.120118 0.68505,0.120313 1.21238,0.0034 0.55847,-0.124249 1.25453,-0.412156 1.48082,-0.612513 0.0649,-0.05744 0.27682,-0.152238 0.47099,-0.210678 0.65293,-0.196512 1.29743,0.137248 1.5119,0.782923 0.11533,0.347251 0.11408,0.382954 -0.0251,0.697386 -0.0975,0.220417 -0.2615,0.410463 -0.48971,0.567474 -0.60419,0.415692 -0.97352,0.576204 -2.26217,0.983165 -0.32276,0.101958 -1.64952,0.148646 -2.13642,0.07518 z m 10.5375,-0.0034 c -0.90568,-0.178684 -1.76669,-0.57704 -2.33923,-1.082274 -0.52709,-0.465138 -1.05265,-1.278946 -1.32882,-2.057579 l -0.22866,-0.644679 -10e-4,-3.313089 c -0.001,-3.245392 10e-4,-3.317403 0.15525,-3.524992 0.0863,-0.116559 0.26847,-0.287862 0.40484,-0.380676 0.49888,-0.339539 1.36197,-0.154173 1.73819,0.373307 0.17454,0.244699 0.17521,0.254585 0.21763,3.245449 0.0252,1.772428 0.0754,3.114208 0.12286,3.279103 0.11599,0.403059 0.43136,0.910662 0.71436,1.149799 0.30539,0.258053 0.96984,0.558033 1.24111,0.560322 0.20288,0.0011 0.20252,0.0023 -0.0605,0.155248 -0.42548,0.246838 -0.63534,0.618704 -0.63534,1.12578 0,0.483573 0.13807,0.73516 0.56174,1.023491 l 0.24793,0.168751 -0.25483,-0.0092 c -0.14017,-0.0057 -0.38985,-0.03605 -0.55484,-0.06854 z m 1.73112,0.0046 c 0.23104,-0.09235 0.54012,-0.492441 0.64126,-0.829989 0.16447,-0.548947 -0.14727,-1.170866 -0.71649,-1.429388 -0.17279,-0.0785 -0.245,-0.139651 -0.16596,-0.140578 0.30156,-0.0034 0.90705,-0.278227 1.22241,-0.554531 0.31158,-0.272997 0.57352,-0.667669 0.72813,-1.097116 0.0372,-0.103102 0.0882,-1.55438 0.11352,-3.225 0.0449,-2.958891 0.0502,-3.044371 0.21106,-3.302859 0.22265,-0.357985 0.66527,-0.597145 1.10513,-0.597145 0.40703,0 0.6665,0.118711 0.97983,0.448282 l 0.22499,0.236666 v 3.351274 c 0,3.068837 -0.0119,3.389209 -0.14083,3.801285 -0.40613,1.297633 -1.24466,2.318423 -2.36161,2.874899 -0.34509,0.171932 -0.69324,0.312591 -0.77368,0.312591 -0.0804,0 -0.20309,0.02906 -0.27256,0.06465 -0.0695,0.03559 -0.31195,0.08376 -0.53882,0.106993 -0.25207,0.02586 -0.35178,0.01808 -0.25638,-0.02003 z m 18.74388,0.02815 c -1.01423,-0.101843 -2.39019,-0.734531 -3.13934,-1.44344 -0.65171,-0.616667 -1.18794,-1.516024 -1.48248,-2.486293 -0.22937,-0.755632 -0.24997,-2.460374 -0.0394,-3.257098 0.5161,-1.952256 1.85643,-3.311624 3.83617,-3.890678 0.42818,-0.125244 0.73245,-0.153142 1.65,-0.151277 1.06221,0.0023 1.16451,0.01556 1.83264,0.24051 1.58297,0.532847 2.81319,1.712307 3.37275,3.233537 0.19047,0.51781 0.38211,1.609445 0.38211,2.17654 0,0.516025 -0.18385,1.555159 -0.35742,2.020148 l -0.12475,0.334172 -0.0607,-0.291855 c -0.0726,-0.349163 -0.36152,-0.748091 -0.68463,-0.945106 -0.32194,-0.196306 -0.907,-0.190928 -1.23887,0.01144 l -0.25381,0.154733 0.0502,-0.173763 c 0.10173,-0.352023 0.13506,-1.534699 0.0553,-1.95942 -0.1134,-0.60353 -0.40124,-1.144398 -0.8551,-1.606881 -0.42045,-0.42844 -0.84321,-0.661215 -1.48024,-0.815021 -0.54139,-0.130714 -0.87397,-0.129055 -1.40259,0.0069 -1.24222,0.319742 -2.01194,1.140656 -2.30792,2.461472 -0.14436,0.644257 -0.14426,0.998088 7.5e-4,1.578274 0.25113,1.006624 0.7702,1.690748 1.64127,2.163175 0.44765,0.242788 0.47399,0.247434 1.39377,0.24582 0.87858,-0.0011 0.96267,-0.01476 1.33802,-0.21085 0.22028,-0.115071 0.54469,-0.342102 0.72088,-0.504513 0.17621,-0.162423 0.3376,-0.295312 0.35865,-0.295312 0.0211,0 0.0589,0.129227 0.0842,0.287187 0.0595,0.372174 0.31991,0.753457 0.64376,0.9426 0.28588,0.166966 0.92842,0.192953 1.19839,0.04852 0.25303,-0.135418 0.18056,0.02826 -0.20015,0.452138 -0.59762,0.665334 -1.48892,1.17629 -2.71876,1.55858 -0.28548,0.08868 -1.72941,0.164289 -2.2125,0.115759 z m 23.77499,-0.02781 c -0.98157,-0.16169 -1.76378,-0.513267 -2.48768,-1.118136 -1.08528,-0.906829 -1.74724,-2.196875 -1.91481,-3.731654 -0.31977,-2.928567 1.27901,-5.399412 4.0086,-6.195129 0.77442,-0.22576 2.33662,-0.226298 3.10896,-0.0011 2.1731,0.633717 3.68723,2.403674 3.98835,4.662261 0.10963,0.821944 0.11089,5.042686 0.001,5.444326 -0.29452,1.083178 -1.72628,1.26565 -2.35397,0.300003 -0.13837,-0.212875 -0.14638,-0.378559 -0.14869,-3.075004 l -0.002,-2.849999 -0.23199,-0.487498 c -0.4649,-0.976849 -1.26602,-1.605028 -2.30234,-1.805304 -0.92691,-0.179142 -1.93087,0.148222 -2.64514,0.862498 -1.29427,1.294257 -1.29497,3.539868 -10e-4,4.80269 0.56675,0.55333 1.10799,0.796472 1.87433,0.842016 0.33366,0.0198 0.72477,0.07106 0.86915,0.113858 1.02065,0.302361 1.12549,1.682212 0.1593,2.096371 -0.39217,0.16811 -1.33403,0.236631 -1.9218,0.139811 z m 16.23751,-0.0057 c -0.71652,-0.0983 -1.14385,-0.225841 -1.8,-0.537161 -1.94337,-0.922059 -3.07067,-2.759187 -3.07378,-5.009192 -0.003,-2.739539 1.45306,-4.777126 3.92913,-5.495339 0.72649,-0.210736 2.41405,-0.222133 3.08215,-0.02083 1.32241,0.398459 2.3898,1.283157 2.95188,2.446632 0.47913,0.991782 0.40727,1.332408 -0.41148,1.950539 -0.24222,0.182872 -0.9419,0.720387 -1.55483,1.194485 -1.53597,1.188065 -1.62304,1.248816 -1.94162,1.354837 -0.3074,0.102301 -0.73482,0.01922 -1.0866,-0.211297 -0.25112,-0.16454 -0.46985,-0.631566 -0.46985,-1.003214 0,-0.530775 0.25673,-0.848915 1.35437,-1.678332 1.39008,-1.050393 1.44901,-1.104897 1.39135,-1.286601 -0.0626,-0.197199 -0.71436,-0.525248 -1.26076,-0.634576 -0.8254,-0.165134 -1.93338,0.132889 -2.5699,0.691265 -0.36851,0.323267 -0.72786,0.889435 -0.89561,1.411079 -0.17957,0.558387 -0.17753,1.908178 0.003,2.395069 0.20935,0.562667 0.59029,1.103821 1.01135,1.436643 0.55372,0.437697 0.83967,0.566935 1.57936,0.71383 0.61404,0.121949 0.67924,0.121857 1.23598,-0.0023 0.55744,-0.123837 0.76367,-0.208172 1.6317,-0.667257 0.63031,-0.333336 1.26751,-0.223677 1.65542,0.284898 0.4618,0.605442 0.29345,1.184953 -0.49601,1.707352 -1.21051,0.801049 -2.80481,1.159446 -4.26587,0.958975 z m 10.5,0.0057 c -0.94646,-0.176543 -1.54479,-0.44295 -2.21702,-0.987125 -0.98952,-0.801037 -1.53575,-1.854475 -1.68644,-3.252349 -0.0477,-0.442252 -0.0713,-1.857862 -0.0574,-3.449994 0.0233,-2.691043 0.0239,-2.700816 0.19846,-2.945457 0.37737,-0.529082 1.23748,-0.712377 1.7433,-0.371511 0.13918,0.09383 0.3298,0.284406 0.42359,0.423588 0.16976,0.251897 0.17054,0.265754 0.17054,3.030926 0,2.323573 0.0201,2.858376 0.12292,3.270155 0.29933,1.19889 1.13217,1.883369 2.31458,1.90225 0.99753,0.01591 1.82916,-0.481502 2.25287,-1.347559 0.20077,-0.410337 0.2118,-0.491194 0.25977,-1.904081 0.0454,-1.339102 0.0653,-1.500209 0.21489,-1.742207 0.24115,-0.390175 0.6065,-0.578608 1.12185,-0.578608 0.49943,0 0.901,0.222911 1.11854,0.620901 0.19535,0.357345 0.18651,2.915752 -0.0129,3.729102 -0.41562,1.695474 -1.49756,2.886629 -3.10974,3.423606 -0.46602,0.155225 -0.74861,0.194658 -1.54531,0.215633 -0.53626,0.01407 -1.12688,-0.0023 -1.3125,-0.0373 z m -62.09422,-0.17595 c -0.22274,-0.113973 -0.38289,-0.267219 -0.4875,-0.466637 -0.15027,-0.286489 -0.15652,-0.420407 -0.17664,-3.791444 -0.0224,-3.759551 -0.006,-3.965115 0.36847,-4.617038 0.48188,-0.838754 1.37731,-1.507624 2.42739,-1.813223 1.02278,-0.297645 2.42045,-0.447241 3.29932,-0.353121 l 0.49719,0.05321 -0.34627,0.219592 c -0.65927,0.418096 -0.76967,1.267538 -0.24029,1.848743 l 0.15369,0.168751 -0.74431,8.92e-4 c -1.36063,0.0011 -2.23845,0.404352 -2.67999,1.229512 -0.16083,0.300541 -0.16484,0.377335 -0.18743,3.593387 -0.0262,3.727179 -0.0103,3.627933 -0.61806,3.929378 -0.42805,0.212395 -0.8476,0.21172 -1.26557,-0.0023 z" />
    <path id="path921" style="fill:#f0c612" d="m 273.58457,74.783715 c -0.39941,-0.271052 -0.54292,-0.468159 -0.63009,-0.865417 -0.12853,-0.585736 0.14877,-1.185959 0.67321,-1.45716 0.31516,-0.162984 1.02928,-0.141562 1.32672,0.03982 0.88299,0.538362 0.76418,1.964706 -0.19734,2.369047 -0.39975,0.168122 -0.84604,0.13528 -1.1725,-0.08628 z m -28.26295,-1.641893 c -0.38467,-0.136997 -0.61927,-0.369726 -0.76968,-0.763596 -0.15267,-0.39973 -0.10803,-0.730366 0.15467,-1.146562 0.265,-0.419777 0.5872,-0.604766 1.05337,-0.604766 0.43439,0 0.75245,0.164895 1.03547,0.536806 0.36377,0.478011 0.35603,0.929417 -0.0257,1.505851 -0.31702,0.478595 -0.89811,0.668115 -1.44806,0.472267 z m -34.54914,-2.04522 c -0.28734,-0.05184 -0.67829,-0.384819 -0.8034,-0.684261 -0.1432,-0.342709 -0.0926,-0.928502 0.10356,-1.197838 0.17465,-0.239847 0.73103,-0.539003 0.99697,-0.536051 0.35921,0.0034 0.8451,0.319949 1.03015,0.669866 0.21359,0.403929 0.21958,0.761708 0.0188,1.119098 -0.26194,0.466065 -0.81563,0.724884 -1.34601,0.629186 z m 85.0861,-4.624785 c -0.12451,-0.05424 -0.33545,-0.222854 -0.46875,-0.374669 -0.21844,-0.248784 -0.24235,-0.322786 -0.24235,-0.74983 0,-0.565848 0.18006,-0.889516 0.63972,-1.149857 0.54275,-0.307395 1.07269,-0.199029 1.52044,0.310943 0.26081,0.297039 0.3564,0.660379 0.28037,1.06567 -0.14258,0.759991 -1.01098,1.210791 -1.72943,0.897743 z" />
    <path id="path923" style="fill:#6886cb" d="m 249.34266,79.724487 c 0.073,-0.019 0.17422,-0.01774 0.22499,0.0023 0.0508,0.02048 -0.009,0.03605 -0.13267,0.03456 -0.12375,-0.0011 -0.1653,-0.01831 -0.0923,-0.0373 z m -0.95985,-5.835531 c 1e-5,-2.639996 0.009,-3.70911 0.0208,-2.37581 0.0114,1.333301 0.0114,3.493295 -10e-6,4.79999 -0.0115,1.306707 -0.0209,0.215828 -0.0208,-2.42418 z m -5.89939,1.411274 c 0.0541,-0.02163 0.11882,-0.019 0.14375,0.0057 0.0249,0.02495 -0.0193,0.04268 -0.0984,0.03936 -0.0874,-0.0034 -0.10517,-0.0214 -0.0453,-0.04532 z m 38.99999,0 c 0.0541,-0.02163 0.11884,-0.019 0.14376,0.0057 0.0249,0.02495 -0.0193,0.04268 -0.0984,0.03936 -0.0874,-0.0034 -0.10516,-0.0214 -0.0453,-0.04532 z m -28.37662,-0.16352 c -0.12551,-0.07655 -0.31958,-0.247754 -0.43126,-0.380482 -0.17449,-0.207372 -0.20305,-0.308895 -0.20305,-0.721738 0,-0.464394 0.0103,-0.491743 0.32464,-0.819243 0.30644,-0.319823 0.34746,-0.338864 0.73125,-0.339642 0.22364,-4.58e-4 0.52473,-0.01293 0.66911,-0.02769 0.14438,-0.01476 0.18656,-0.01213 0.0937,0.0057 -0.0928,0.01797 -0.16875,0.04257 -0.16875,0.0547 0,0.01213 0.11397,0.142901 0.25333,0.290643 0.29451,0.312258 0.38597,0.677864 0.27381,1.094403 -0.0945,0.351154 -0.51809,0.752954 -0.81101,0.769387 -0.11203,0.0057 -0.23739,0.01922 -0.27864,0.02884 -0.0412,0.0092 -0.12562,0.02369 -0.18749,0.03135 -0.0802,0.0103 -0.0695,0.03238 0.0375,0.07838 0.0998,0.04291 0.11226,0.06614 0.0375,0.06946 -0.0619,0.0023 -0.21518,-0.05767 -0.34069,-0.134159 z m -31.64681,-0.02277 c -0.4022,-0.222453 -0.71533,-0.692065 -0.71038,-1.065384 0.005,-0.324766 0.33182,-0.820903 0.64738,-0.980648 0.16725,-0.08468 0.35841,-0.199327 0.42478,-0.254792 0.0664,-0.0555 0.164,-0.08342 0.21694,-0.06213 0.055,0.02208 0.032,0.04234 -0.0538,0.04726 -0.135,0.008 -0.13125,0.01934 0.0375,0.11577 0.1031,0.05893 0.23994,0.108366 0.30404,0.109853 0.17976,0.0046 0.56059,0.457471 0.65269,0.777008 0.13746,0.47697 -0.12796,1.053494 -0.59658,1.295824 -0.24094,0.124604 -0.71266,0.133438 -0.92265,0.01728 z m 4.00937,-1.13124 c 0.1839,-0.19594 0.34421,-0.356246 0.35624,-0.356246 0.0563,0 -0.003,0.06729 -0.33436,0.378125 l -0.35625,0.334367 z m 70.65313,0.290437 c 0,-0.01556 0.059,-0.07461 0.13124,-0.131252 0.11897,-0.09326 0.12161,-0.09063 0.0283,0.02826 -0.098,0.124935 -0.15956,0.164666 -0.15956,0.102988 z m -78.04222,-0.290437 -0.22028,-0.243749 0.24375,0.220279 c 0.13407,0.12116 0.24375,0.230841 0.24375,0.243749 0,0.0579 -0.0619,0.0069 -0.26722,-0.220279 z m 10.80143,-2.756246 c 0,-1.670631 0.0103,-2.354068 0.022,-1.518759 0.012,0.835321 0.012,2.202196 0,3.037506 -0.012,0.835309 -0.022,0.151872 -0.022,-1.518747 z m 28.84079,2.971673 c 0,-0.01556 0.0591,-0.07461 0.13125,-0.13124 0.11896,-0.09326 0.1216,-0.09063 0.0283,0.02826 -0.0979,0.124935 -0.15956,0.164666 -0.15956,0.102988 z M 231.5817,71.151345 c 0,-1.670619 0.0103,-2.354056 0.022,-1.518747 0.012,0.83531 0.012,2.202185 0,3.037506 -0.012,0.83531 -0.022,0.151872 -0.022,-1.518759 z m 46.60621,2.868755 c -0.0933,-0.118951 -0.0906,-0.121606 0.0283,-0.02838 0.12493,0.09795 0.16466,0.159574 0.10288,0.159574 -0.0156,0 -0.0746,-0.05905 -0.13125,-0.131252 z m 7.65957,0.02793 c 0,-0.01556 0.059,-0.07461 0.13125,-0.131252 0.11896,-0.09326 0.1216,-0.09063 0.0284,0.02826 -0.0979,0.124924 -0.15958,0.164654 -0.15958,0.102987 z m -48.00568,-0.327935 -0.18182,-0.20625 0.20625,0.181831 c 0.1134,0.100012 0.20625,0.192815 0.20625,0.206249 0,0.05882 -0.0608,0.01144 -0.23068,-0.18183 z m -31.08894,-0.03749 -0.14288,-0.168751 0.16875,0.142878 c 0.0928,0.07861 0.16875,0.154516 0.16875,0.168751 0,0.06008 -0.0603,0.01568 -0.19462,-0.142878 z m 39.19462,0.14044 c 0,-0.01556 0.059,-0.07461 0.13125,-0.131252 0.11896,-0.09326 0.1216,-0.09063 0.0284,0.02827 -0.098,0.124935 -0.15958,0.164665 -0.15958,0.102987 z m 50.625,0 c 0,-0.01556 0.0591,-0.07461 0.13125,-0.131252 0.11895,-0.09326 0.1216,-0.09063 0.0283,0.02827 -0.0979,0.124935 -0.15956,0.164665 -0.15956,0.102987 z M 215.2121,73.213867 c 0.001,-0.123757 0.0183,-0.165295 0.0373,-0.09235 0.019,0.07301 0.0177,0.17422 -0.002,0.224993 -0.0206,0.05081 -0.0362,-0.0092 -0.0346,-0.132671 z m 52.0297,-0.01877 -0.18182,-0.206249 0.20625,0.181819 c 0.1134,0.100012 0.20625,0.192815 0.20625,0.206249 0,0.05882 -0.0608,0.01144 -0.23068,-0.181819 z m 10.19611,0.07495 c -0.0933,-0.118951 -0.0906,-0.121606 0.0284,-0.02826 0.12492,0.09795 0.16466,0.159562 0.10287,0.159562 -0.0156,0 -0.0746,-0.05905 -0.13125,-0.131252 z m -26.3613,-0.881254 c 0,-0.536245 0.0121,-0.745779 0.0265,-0.46563 0.0144,0.280161 0.0143,0.718911 0,0.975007 -0.0146,0.256096 -0.0264,0.02689 -0.0263,-0.509377 z m -44.8137,0.731201 c -0.0933,-0.118963 -0.0906,-0.121606 0.0283,-0.02826 0.12493,0.09795 0.16465,0.159574 0.10298,0.159574 -0.0156,0 -0.0746,-0.05905 -0.13125,-0.131252 z m 4.67975,-0.220726 c 0.073,-0.01899 0.17422,-0.01774 0.225,0.0023 0.0508,0.02048 -0.009,0.03605 -0.13268,0.03456 -0.12374,-0.0011 -0.16529,-0.01831 -0.0923,-0.0373 z m 58.1273,-0.323026 c 0,-0.22687 0.0141,-0.319685 0.0312,-0.20625 0.0172,0.113401 0.0172,0.299065 0,0.4125 -0.0172,0.113401 -0.0312,0.0206 -0.0312,-0.20625 z m 12.89627,0.323301 c 0.0722,-0.01888 0.19031,-0.01888 0.2625,0 0.0722,0.01888 0.0132,0.03433 -0.13125,0.03433 -0.14438,0 -0.20343,-0.01545 -0.13125,-0.03433 z m -71.6625,-0.07291 c 0.0516,-0.02083 0.13594,-0.02083 0.1875,0 0.0516,0.02083 0.009,0.03788 -0.0937,0.03788 -0.1031,0 -0.14532,-0.01705 -0.0937,-0.03788 z m 1.2,0 c 0.0516,-0.02083 0.13594,-0.02083 0.1875,0 0.0516,0.02083 0.009,0.03788 -0.0937,0.03788 -0.1031,0 -0.14532,-0.01705 -0.0937,-0.03788 z m 30.3,-0.0034 c 0.0928,-0.01785 0.24469,-0.01785 0.33751,0 0.0928,0.01785 0.0168,0.0325 -0.16876,0.0325 -0.18562,0 -0.26156,-0.01465 -0.16875,-0.0325 z m 24.14832,-0.0011 c 0.13314,-0.01659 0.3694,-0.01682 0.52501,-6.07e-4 0.1556,0.01625 0.0467,0.02975 -0.24208,0.0301 -0.28875,2.97e-4 -0.41607,-0.01293 -0.28293,-0.02952 z m 15.4156,0.0023 c 0.073,-0.01899 0.17422,-0.01774 0.22501,0.0023 0.0508,0.02048 -0.009,0.03605 -0.13268,0.03456 -0.12375,-0.0011 -0.16529,-0.01831 -0.0924,-0.0373 z m 1.2,0 c 0.073,-0.01899 0.17422,-0.01774 0.22501,0.0023 0.0508,0.02048 -0.009,0.03605 -0.13268,0.03456 -0.12375,-0.0011 -0.1653,-0.01831 -0.0923,-0.0373 z m -62.53979,-0.79178 -0.14288,-0.168751 0.16875,0.142878 c 0.0928,0.07861 0.16875,0.154516 0.16875,0.168751 0,0.06008 -0.0604,0.01568 -0.19462,-0.142878 z m 3.45712,0.01877 c 0.0746,-0.0825 0.15263,-0.150007 0.17325,-0.150007 0.0206,0 -0.0236,0.06751 -0.0983,0.150007 -0.0746,0.0825 -0.15262,0.149996 -0.17324,0.149996 -0.0206,0 0.0236,-0.06752 0.0983,-0.149996 z m 40.49287,-0.09372 -0.14287,-0.168751 0.16875,0.142878 c 0.15858,0.134262 0.20289,0.194624 0.14287,0.194624 -0.0142,0 -0.0902,-0.07598 -0.16875,-0.168751 z m 15.63505,-0.03753 c -0.0933,-0.118951 -0.0906,-0.121606 0.0284,-0.02827 0.12494,0.09795 0.16467,0.159574 0.10288,0.159574 -0.0156,0 -0.0746,-0.05905 -0.13126,-0.131252 z m -65.74524,0.0046 c 0.073,-0.019 0.17423,-0.01774 0.225,0.0023 0.0508,0.02048 -0.009,0.03605 -0.13268,0.03456 -0.12375,-0.0011 -0.1653,-0.01831 -0.0923,-0.03731 z m 71.025,0 c 0.073,-0.019 0.17422,-0.01774 0.22499,0.0023 0.0508,0.02048 -0.009,0.03605 -0.13267,0.03456 -0.12375,-0.0011 -0.1653,-0.01831 -0.0924,-0.03731 z m 2.77525,-0.998019 c 0,-0.185629 0.0146,-0.261565 0.0325,-0.168751 0.0179,0.0928 0.0179,0.244688 0,0.337502 -0.0179,0.0928 -0.0325,0.01682 -0.0325,-0.168751 z m 2.76641,-0.0752 c 0,-0.103102 0.0171,-0.145315 0.0379,-0.09372 0.0208,0.05161 0.0208,0.135932 0,0.187494 -0.0208,0.05161 -0.0379,0.0092 -0.0379,-0.09372 z m -85.20592,-0.19376 c 0.003,-0.08743 0.0214,-0.105161 0.0453,-0.04531 0.0216,0.05413 0.019,0.118825 -0.006,0.143748 -0.0249,0.02495 -0.0427,-0.01934 -0.0394,-0.09841 z m 92.625,0 c 0.003,-0.08743 0.0214,-0.105161 0.0453,-0.04531 0.0216,0.05413 0.019,0.118825 -0.006,0.143748 -0.0249,0.02495 -0.0427,-0.01934 -0.0394,-0.09841 z m -81.1969,-2.768753 c -2e-5,-1.567495 0.0103,-2.219406 0.0221,-1.448681 0.0121,0.770725 0.0122,2.053218 3e-5,2.849999 -0.0121,0.796781 -0.0221,0.166188 -0.0222,-1.401318 z m 2.77497,0.03753 c 0,-1.546874 0.0103,-2.179687 0.0222,-1.40625 0.0122,0.773448 0.0122,2.039063 0,2.8125 -0.0121,0.773437 -0.0222,0.140636 -0.0222,-1.40625 z m 56.83492,2.512509 c 8.2e-4,-0.165009 0.0162,-0.223678 0.0341,-0.130382 0.018,0.09326 0.0173,0.2283 -0.001,0.300003 -0.0188,0.07175 -0.0334,-0.0046 -0.0326,-0.169621 z m -52.13207,-0.03749 c 0,-0.103102 0.0171,-0.145316 0.0379,-0.09372 0.0208,0.05161 0.0208,0.135932 0,0.187495 -0.0208,0.05161 -0.0379,0.0092 -0.0379,-0.09372 z m 14.84407,-0.04383 c 0.003,-0.08742 0.0214,-0.105162 0.0453,-0.04531 0.0216,0.05413 0.019,0.118836 -0.006,0.143759 -0.0249,0.02495 -0.0427,-0.01934 -0.0394,-0.09841 z m 21.45,0 c 0.003,-0.08742 0.0214,-0.105162 0.0453,-0.04531 0.0216,0.05413 0.019,0.118836 -0.006,0.143759 -0.0249,0.02495 -0.0427,-0.01934 -0.0394,-0.09841 z M 247.6121,70.139019 c 0.001,-0.123745 0.0183,-0.165295 0.0373,-0.09235 0.019,0.07301 0.0177,0.174221 -0.002,0.224994 -0.0205,0.05081 -0.036,-0.0092 -0.0345,-0.132671 z m -42.44001,-0.524997 c 3e-4,-0.288754 0.0139,-0.397692 0.0301,-0.242078 0.0162,0.155603 0.0159,0.391857 -6.1e-4,0.524997 -0.0166,0.13314 -0.0299,0.0057 -0.0295,-0.282919 z m 51.88131,0.368742 c 0.003,-0.08743 0.0214,-0.105162 0.0453,-0.04532 0.0216,0.05413 0.019,0.118825 -0.006,0.143748 -0.0249,0.02495 -0.0427,-0.01934 -0.0394,-0.09841 z m -49.3313,-0.443808 c 3e-4,-0.288743 0.0138,-0.397681 0.0301,-0.242078 0.0162,0.155614 0.0159,0.391868 -5.9e-4,0.525008 -0.0166,0.13314 -0.0299,0.0057 -0.0295,-0.28293 z m 52.04581,0.03754 c 0,-0.185629 0.0147,-0.261566 0.0325,-0.168751 0.0178,0.0928 0.0178,0.244687 0,0.337491 -0.0179,0.0928 -0.0325,0.01694 -0.0325,-0.16874 z m 3.29849,0.03753 c 8.2e-4,-0.165009 0.0161,-0.223677 0.0341,-0.130382 0.018,0.09326 0.0173,0.228301 -0.001,0.300003 -0.0188,0.07175 -0.0334,-0.0046 -0.0326,-0.169621 z m 15.662,-0.08125 c 0.003,-0.08731 0.0214,-0.105162 0.0453,-0.04532 0.0216,0.05413 0.019,0.118836 -0.006,0.143759 -0.0249,0.02495 -0.0427,-0.01934 -0.0394,-0.09841 z m -39.825,-0.225 c 0.003,-0.08742 0.0214,-0.105161 0.0453,-0.04531 0.0216,0.05413 0.019,0.118825 -0.006,0.143748 -0.0249,0.02495 -0.0427,-0.01934 -0.0394,-0.09841 z m 18.15592,-0.03124 c 0,-0.103102 0.0171,-0.145316 0.0379,-0.09372 0.0208,0.05161 0.0208,0.135944 0,0.187506 -0.0208,0.05161 -0.0379,0.0092 -0.0379,-0.09372 z M 251.0534,69.15778 c 0.003,-0.08743 0.0214,-0.105162 0.0453,-0.04532 0.0216,0.05413 0.019,0.118825 -0.006,0.143748 -0.025,0.02495 -0.0427,-0.01934 -0.0394,-0.09841 z m 20.71299,-0.143748 c 8.3e-4,-0.164998 0.0161,-0.223666 0.0341,-0.130371 0.018,0.09326 0.0173,0.228289 -0.001,0.299992 -0.0188,0.07175 -0.0334,-0.0046 -0.0326,-0.169621 z m -24.15707,0.03753 c 0,-0.103102 0.0171,-0.145315 0.0379,-0.09372 0.0208,0.05161 0.0208,0.135944 0,0.187507 -0.0208,0.05161 -0.0379,0.0092 -0.0379,-0.09372 z m 12.825,-0.149996 c 0,-0.103102 0.0171,-0.145315 0.0379,-0.09372 0.0208,0.05161 0.0208,0.135943 0,0.187506 -0.0208,0.05161 -0.0379,0.0092 -0.0379,-0.09372 z m 15.83207,-0.112485 c 8.2e-4,-0.165009 0.0162,-0.223678 0.0341,-0.130382 0.018,0.09326 0.0173,0.2283 -0.001,0.300003 -0.0188,0.07175 -0.0334,-0.0046 -0.0326,-0.169621 z m -37.288,0.06877 c 0.003,-0.08743 0.0214,-0.105162 0.0453,-0.04532 0.0216,0.05413 0.019,0.118825 -0.006,0.143748 -0.0249,0.02495 -0.0427,-0.01934 -0.0394,-0.09841 z m 20.70001,-0.15002 c 0.003,-0.08743 0.0214,-0.105162 0.0453,-0.04531 0.0216,0.05412 0.019,0.118836 -0.006,0.143759 -0.0249,0.02495 -0.0427,-0.01934 -0.0394,-0.09841 z m -11.25,-0.07495 c 0.003,-0.08731 0.0214,-0.105162 0.0453,-0.04531 0.0216,0.05412 0.019,0.118824 -0.006,0.143747 -0.0249,0.02495 -0.0427,-0.01934 -0.0394,-0.09841 z m -43.2,-0.07495 c 0.003,-0.08731 0.0214,-0.105162 0.0453,-0.04531 0.0216,0.05412 0.019,0.118824 -0.006,0.143747 -0.0249,0.02495 -0.0427,-0.01934 -0.0394,-0.09841 z m 89.93092,-0.256256 c 0,-0.103102 0.017,-0.145304 0.0379,-0.09372 0.0208,0.05161 0.0208,0.135932 0,0.187495 -0.0208,0.05161 -0.0379,0.0092 -0.0379,-0.09372 z m -8.82435,-0.07495 c 0.0746,-0.0825 0.15263,-0.149996 0.17326,-0.149996 0.0206,0 -0.0236,0.06751 -0.0983,0.149996 -0.0746,0.0825 -0.15263,0.150007 -0.17326,0.150007 -0.0206,0 0.0236,-0.06751 0.0983,-0.150007 z m -57.46425,-0.7875 c 7.6e-4,-0.247502 0.0144,-0.33971 0.0311,-0.204899 0.0167,0.134799 0.0164,0.337296 -7.6e-4,0.449998 -0.0171,0.112715 -0.0308,0.0023 -0.0303,-0.245099 z m 27.23454,-0.20625 -0.22028,-0.243748 0.24375,0.220279 c 0.22721,0.205334 0.27823,0.267218 0.22028,0.267218 -0.0129,0 -0.12259,-0.109624 -0.24375,-0.243749 z m 7.84222,0.0563 c 0.0969,-0.103102 0.19302,-0.187506 0.21364,-0.187506 0.0206,0 -0.0418,0.08434 -0.13864,0.187506 -0.0969,0.103102 -0.19302,0.187495 -0.21364,0.187495 -0.0206,0 0.0418,-0.08434 0.13864,-0.187495 z m 4.23278,-0.0563 -0.22028,-0.243748 0.24375,0.220279 c 0.22721,0.205334 0.27823,0.267218 0.22028,0.267218 -0.0129,0 -0.12259,-0.109624 -0.24375,-0.243749 z m 28.30316,-0.10756 c 0.0541,-0.02163 0.11883,-0.019 0.14375,0.0057 0.0249,0.02495 -0.0193,0.04268 -0.0984,0.03936 -0.0874,-0.0034 -0.10516,-0.0214 -0.0453,-0.04531 z m -84.07051,-0.230018 c -0.0933,-0.11895 -0.0906,-0.121605 0.0284,-0.02826 0.12493,0.09795 0.16466,0.159562 0.10287,0.159562 -0.0156,0 -0.0746,-0.05905 -0.13125,-0.131252 z m 21.14551,-0.520238 c 0.0541,-0.02163 0.11882,-0.019 0.14375,0.0057 0.0249,0.02495 -0.0193,0.04268 -0.0984,0.03936 -0.0874,-0.0034 -0.10517,-0.0214 -0.0453,-0.04531 z m 1.38423,-7.55e-4 c 0.073,-0.019 0.17424,-0.01774 0.22501,0.0023 0.0508,0.0206 -0.009,0.03605 -0.13268,0.03456 -0.12375,-0.0011 -0.16529,-0.01831 -0.0924,-0.03742 z m 6.82358,-0.0023 c 0.11341,-0.01716 0.29906,-0.01716 0.4125,0 0.11341,0.01716 0.0206,0.03124 -0.20625,0.03124 -0.22688,0 -0.31969,-0.01407 -0.20625,-0.03124 z m 24.18749,7.89e-4 c 0.0928,-0.01785 0.24469,-0.01785 0.33751,0 0.0928,0.01785 0.0168,0.0325 -0.16875,0.0325 -0.18562,0 -0.26156,-0.01465 -0.16876,-0.0325 z m -55.49999,-0.07175 c 0.0516,-0.02083 0.13594,-0.02083 0.18751,0 0.0516,0.02083 0.009,0.03788 -0.0937,0.03788 -0.1031,0 -0.14532,-0.01705 -0.0937,-0.03788 z m 0.52969,-0.0011 c 0.0541,-0.02163 0.11882,-0.01899 0.14375,0.0057 0.0249,0.02495 -0.0193,0.04268 -0.0984,0.03936 -0.0873,-0.0034 -0.10517,-0.0214 -0.0453,-0.04531 z m 70.575,0 c 0.0541,-0.02163 0.11883,-0.01899 0.14375,0.0057 0.0249,0.02495 -0.0193,0.04268 -0.0984,0.03936 -0.0874,-0.0034 -0.10516,-0.0214 -0.0453,-0.04531 z m 0.45,0 c 0.0541,-0.02163 0.11882,-0.01899 0.14375,0.0057 0.0249,0.02495 -0.0193,0.04268 -0.0984,0.03936 -0.0874,-0.0034 -0.10517,-0.0214 -0.0453,-0.04531 z m -32.46094,-0.277095 c 0,-0.01556 0.059,-0.07461 0.13125,-0.131252 0.11896,-0.09326 0.1216,-0.09063 0.0284,0.02827 -0.098,0.124935 -0.15958,0.164665 -0.15958,0.102987 z m -11.7375,-0.496675 c 0.20315,-0.206261 0.38623,-0.375001 0.40686,-0.375001 0.0206,0 -0.12872,0.16874 -0.33185,0.375001 -0.20315,0.20625 -0.38624,0.37499 -0.40687,0.37499 -0.0206,0 0.12872,-0.16874 0.33186,-0.37499 z m 20.24718,-0.01877 -0.37219,-0.393756 0.39376,0.372185 c 0.21656,0.204705 0.39374,0.38189 0.39374,0.393756 0,0.05596 -0.0695,-0.0069 -0.41531,-0.372185 z m 3.97782,0.01877 c 0.20315,-0.206261 0.38623,-0.375001 0.40686,-0.375001 0.0206,0 -0.12872,0.16874 -0.33187,0.375001 -0.20313,0.20625 -0.38622,0.37499 -0.40685,0.37499 -0.0206,0 0.12872,-0.16874 0.33186,-0.37499 z m -55.31563,-0.01877 c 0.18389,-0.19594 0.34421,-0.356246 0.35625,-0.356246 0.0563,0 -0.003,0.06728 -0.33437,0.378125 l -0.35624,0.334366 z m 22.65313,0.290436 c 0,-0.01556 0.059,-0.07461 0.13125,-0.131252 0.11896,-0.09326 0.1216,-0.09063 0.0284,0.02826 -0.098,0.124935 -0.15958,0.164665 -0.15958,0.102987 z m 40.725,-0.309192 c -0.18218,-0.185618 -0.31436,-0.33749 -0.29373,-0.33749 0.0206,0 0.18655,0.151872 0.36873,0.33749 0.18217,0.18563 0.31436,0.337502 0.29373,0.337502 -0.0206,0 -0.18656,-0.151872 -0.36873,-0.337502 z m -55.69222,-0.206235 -0.22028,-0.243749 0.24375,0.220291 c 0.13407,0.121147 0.24375,0.230841 0.24375,0.243749 0,0.0579 -0.0619,0.0069 -0.26722,-0.220291 z m 35.89222,-0.0096 c 0,-0.01556 0.059,-0.07461 0.13125,-0.131241 0.11896,-0.09326 0.12161,-0.09063 0.0283,0.02826 -0.0979,0.124935 -0.15957,0.164665 -0.15957,0.102987 z m -20.25,-0.150019 c 0,-0.01556 0.0591,-0.07461 0.13125,-0.131252 0.11896,-0.09326 0.12161,-0.09063 0.0284,0.02838 -0.0979,0.124924 -0.15957,0.164655 -0.15957,0.102988 z m -11.06962,-0.815434 -0.14288,-0.168751 0.16875,0.142879 c 0.0928,0.07861 0.16875,0.154515 0.16875,0.168751 0,0.06008 -0.0604,0.01568 -0.19462,-0.142879 z m 70.95,0 -0.14288,-0.168751 0.16875,0.142879 c 0.15858,0.134261 0.20289,0.194623 0.14288,0.194623 -0.0142,0 -0.0902,-0.07598 -0.16875,-0.168751 z m -56.44444,-0.407486 c 0.0541,-0.02163 0.11883,-0.019 0.14375,0.0057 0.0249,0.02495 -0.0193,0.04268 -0.0984,0.03936 -0.0874,-0.0034 -0.10516,-0.0214 -0.0453,-0.04531 z m 20.02031,0.0011 c 0.0516,-0.02083 0.13594,-0.02083 0.1875,0 0.0516,0.02083 0.009,0.03788 -0.0937,0.03788 -0.1031,0 -0.1453,-0.01705 -0.0937,-0.03788 z m 0.97969,-0.0011 c 0.0541,-0.02163 0.11883,-0.019 0.14375,0.0057 0.0249,0.02495 -0.0193,0.04268 -0.0984,0.03936 -0.0874,-0.0034 -0.10516,-0.0214 -0.0453,-0.04531 z m 27.975,0 c 0.0541,-0.02163 0.11882,-0.019 0.14375,0.0057 0.0249,0.02495 -0.0193,0.04268 -0.0984,0.03936 -0.0874,-0.0034 -0.10517,-0.0214 -0.0453,-0.04531 z" />
    <path id="path925" style="fill:#cc5350" d="m 273.5152,74.815004 c -0.38359,-0.260467 -0.59397,-0.586263 -0.67065,-1.038584 -0.0578,-0.34074 0.0658,-0.132122 0.13329,0.224993 0.0944,0.499925 0.68327,0.975007 1.20844,0.975007 1.09518,0 1.73363,-1.144238 1.16167,-2.08194 -0.22701,-0.372163 -0.56362,-0.542448 -1.07295,-0.542779 -0.65491,-4.47e-4 -1.07501,0.281991 -1.29985,0.873861 l -0.10951,0.288354 0.0424,-0.260433 c 0.0455,-0.279474 0.39348,-0.694926 0.72951,-0.870966 0.26033,-0.136379 0.98341,-0.136802 1.24495,-7.44e-4 0.28032,0.145842 0.51179,0.408723 0.64894,0.736991 0.37451,0.896312 -0.23087,1.845996 -1.22194,1.91692 -0.38312,0.02746 -0.46051,0.0057 -0.79426,-0.220703 z m -26.59272,-2.388635 c 0.0442,-0.0825 0.0971,-0.150008 0.11779,-0.150008 0.0206,0 0.001,0.06751 -0.0428,0.150008 -0.0442,0.0825 -0.0971,0.149995 -0.11779,0.149995 -0.0206,0 -0.001,-0.06751 0.0428,-0.149995 z m -2.39762,-1.016923 c -10e-4,-0.04371 0.0471,-0.144927 0.1078,-0.224994 0.0605,-0.0801 0.11122,-0.109853 0.11248,-0.06614 0.001,0.04371 -0.0471,0.144927 -0.10768,0.225005 -0.0605,0.0801 -0.11123,0.109854 -0.11248,0.06614 z m -33.84613,-0.30775 c 0.0516,-0.02083 0.13594,-0.02083 0.1875,0 0.0516,0.02083 0.009,0.03788 -0.0937,0.03788 -0.1031,0 -0.1453,-0.01705 -0.0937,-0.03788 z m 0.67808,-0.02415 c 0.13574,-0.03215 0.30715,-0.113057 0.3809,-0.179816 0.0737,-0.06671 0.16329,-0.121343 0.199,-0.121343 0.0357,0 -0.0494,0.08434 -0.18923,0.187495 -0.13977,0.103102 -0.34039,0.18405 -0.44582,0.179828 -0.16686,-0.0069 -0.15972,-0.01522 0.0552,-0.06614 z m -1.16062,-0.244916 c -0.31446,-0.332238 -0.39871,-0.51789 -0.39871,-0.878725 0,-0.394843 0.14946,-0.741282 0.42159,-0.977249 l 0.21592,-0.187232 -0.20148,0.224731 c -0.51963,0.579591 -0.47568,1.408836 0.0986,1.861364 0.13904,0.10951 0.21724,0.199578 0.17377,0.200036 -0.0435,4.46e-4 -0.18286,-0.108824 -0.30975,-0.242925 z m 85.58851,-4.320912 c -0.1696,-0.07701 -0.3899,-0.265754 -0.50625,-0.433635 -0.17162,-0.24764 -0.20597,-0.376374 -0.20597,-0.771835 0,-0.597763 0.16341,-0.881643 0.66451,-1.154377 0.50012,-0.272196 0.86339,-0.264278 1.30532,0.02849 1.40402,0.92999 0.27298,3.026761 -1.25761,2.331411 z m 1.14701,-0.07781 c 0.72552,-0.371534 0.91012,-1.317029 0.37593,-1.925434 -0.44775,-0.509972 -0.97769,-0.618337 -1.52044,-0.310942 -0.45966,0.260341 -0.63972,0.584008 -0.63972,1.149857 0,0.427043 0.0239,0.501046 0.24235,0.74983 0.42347,0.482302 1.00821,0.609984 1.54188,0.336689 z m -61.36932,0.01247 c -0.22859,-0.05767 -0.63705,-0.396857 -0.75683,-0.628488 -0.14965,-0.289395 -0.13846,-0.889378 0.0208,-1.118514 0.48101,-0.691756 1.25492,-0.769535 1.82319,-0.183238 0.24689,0.254734 0.26037,0.295872 0.26037,0.794847 0,0.52169 -0.002,0.528761 -0.31586,0.820834 -0.18994,0.177185 -0.38929,0.294625 -0.5001,0.294625 -0.10139,0 -0.22922,0.01282 -0.28416,0.02861 -0.0549,0.01568 -0.1663,0.01179 -0.24748,-0.0092 z" />
  </g>
</svg>
