<svg viewBox="0 0 270.93332 270.93332" xmlns="http://www.w3.org/2000/svg" xmlns:xlink="http://www.w3.org/1999/xlink"><filter id="a" color-interpolation-filters="sRGB" height="1.070409" width="1.079068" x="-.039534" y="-.029997"><feFlood flood-opacity=".501961" result="flood"/><feComposite in="flood" in2="SourceGraphic" operator="in" result="composite1"/><feGaussianBlur in="composite1" result="blur" stdDeviation="3"/><feOffset dx="0" dy="2.5" result="offset"/><feComposite in="offset" in2="offset" operator="atop" result="composite2"/></filter><filter id="b" color-interpolation-filters="sRGB" height="1.24222" width="1.205383" x="-.102692" y="-.103194"><feFlood flood-opacity=".25098" result="flood"/><feComposite in="flood" in2="SourceGraphic" operator="in" result="composite1"/><feGaussianBlur in="composite1" result="blur" stdDeviation="3"/><feOffset dx="0" dy="2.5" result="offset"/><feComposite in="offset" in2="offset" operator="atop" result="composite2"/></filter><g transform="translate(33.53022 -13.03334)"><path d="m17.929048 31.701743h100.245422c5.91596.06522 10.04448 1.700654 13.563 5.224267l55.55117 55.737475c2.87516 3.066732 5.38315 6.196347 5.52567 12.558355v159.27054c0 4.00884-3.22734 7.23618-7.23618 7.23618h-167.649082c-4.008837 0-7.236167-3.22734-7.236167-7.23618v-225.554464c0-4.00884 3.22733-7.236173 7.236167-7.236173z" fill="#f0f0f0" filter="url(#a)"/><path d="m18.111893 28.4866h100.245417c5.91596.06522 10.04448 1.700654 13.563 5.224267l55.55117 55.737475c2.87516 3.066732 5.38315 6.196347 5.52567 12.558338v159.27054c0 4.00884-3.22734 7.23618-7.23618 7.23618h-167.649077c-4.008837 0-7.236167-3.22734-7.236167-7.23618v-225.554447c0-4.00884 3.22733-7.236173 7.236167-7.236173z" fill="#f04040"/><g stroke-linejoin="round" stroke-miterlimit="3.8637" stroke-width=".320928"><path d="m122.69132 29.082033 69.971 69.771252-62.68425-.0824-7.42856-7.428554z" fill="#f025f0" filter="url(#b)"/><g fill="#f0f0f0"><path d="m125.84184 29.837482-.1173 6.143811v52.185962c0 4.115418 3.31307 7.428487 7.42848 7.428487h52.08054l6.35724.0708c-1.03012-2.518338-2.59946-4.361866-4.30206-6.177917l-55.55113-55.737687c-1.76263-1.765181-3.67894-3.056011-5.89577-3.913456z"/><path d="m52.439368 122.99414c-2.556189 0-5.113581.97881-7.072265 2.9375-3.917367 3.91737-3.917366 10.22521-.000002 14.14257l42.425785 42.42579-42.425781 42.42578c-3.917371 3.91737-3.917364 10.22521 0 14.14257 3.917372 3.91737 10.225203 3.91737 14.142574 0l42.427741-42.42577 42.42577 42.42578c3.91737 3.91736 10.22521 3.91736 14.14258-.00001 3.91737-3.91736 3.91737-10.22521 0-14.14257l-42.42578-42.42578 42.42578-42.42578c3.91737-3.91737 3.91737-10.22521 0-14.14258-3.91736-3.91737-10.22521-3.91737-14.14258 0l-42.42577 42.42578-42.427741-42.42578c-1.958678-1.95868-4.514121-2.9375-7.070311-2.9375z" stroke-width=".863837"/></g></g></g></svg>