<svg height="1023.9999" viewBox="0 0 270.93333 270.93333" width="1023.9999" xmlns="http://www.w3.org/2000/svg" xmlns:xlink="http://www.w3.org/1999/xlink"><filter id="a" color-interpolation-filters="sRGB" height="1.080914" width="1.0579" x="-.02895" y="-.034472"><feFlood flood-color="#545454" result="flood"/><feComposite in="flood" in2="SourceGraphic" operator="in" result="composite1"/><feGaussianBlur in="composite1" result="blur" stdDeviation="3"/><feOffset dx="0" dy="2.5" result="offset"/><feComposite in="offset" in2="offset" operator="atop" result="composite2"/></filter><g stroke-linejoin="round" stroke-miterlimit="3.8637" stroke-width=".250103" transform="translate(-282.85789 -5.98145)"><path d="m313.29978 38.982257c-10.70893 0-19.3306 8.621679-19.3306 19.330603v18.822624 4.499984 146.880952c0 10.70893 8.62167 19.33061 19.3306 19.33061h210.04609c10.70893 0 19.33009-8.62168 19.33009-19.33061v-151.380936c0-10.708924-8.62116-19.330086-19.33009-19.330086-38.81784-.06775-78.17291.09854-116.76755-.0098-13.08273-.03474-19.22836-6.4683-25.06203-10.83448-5.04431-3.775381-11.0115-7.978842-17.97875-7.978842z" filter="url(#a)"/><path d="m313.29978 38.982257c-10.70893 0-19.3306 8.621679-19.3306 19.330603v18.822624 4.499984 146.880952c0 10.70893 8.62167 19.33061 19.3306 19.33061h210.04609c10.70893 0 19.33009-8.62168 19.33009-19.33061v-151.380936c0-10.708924-8.62116-19.330086-19.33009-19.330086-38.81784-.06775-78.17291.09854-116.76755-.0098-13.08273-.03474-19.22836-6.4683-25.06203-10.83448-5.04431-3.775381-11.0115-7.978842-17.97875-7.978842z" fill="#17a2b8"/><path d="m313.29963 74.209335h210.0462c10.70894 0 19.33021 8.621273 19.33021 19.330208v134.977107c0 10.70894-8.62127 19.33021-19.33021 19.33021h-210.0462c-10.70894 0-19.33021-8.62127-19.33021-19.33021v-134.977107c0-10.708935 8.62127-19.330208 19.33021-19.330208z" fill="#a4e9f4"/></g></svg>