<?xml version="1.0" encoding="UTF-8" standalone="no"?>
  <svg
    xmlns="http://www.w3.org/2000/svg"
    xmlns:xlink="http://www.w3.org/1999/xlink"
    version="1.1"
	  viewBox="0 0 156 180">
  <g id="g10" transform="matrix(1.25,0,0,-1.25,0,180)" style="line-height:1.25;font-family:Arial;fill:#ffffff">
    <path id="path3176" style="fill:#40a000" d="M 62.4,72 0,108 l 0,0 62.4,36 c 0,0 0.02874,-71.999977 0,-72 z" />
    <path id="path3178" style="fill:#44aa00" d="m 62.399973,72 62.399997,36 0,0 -62.399997,36 c -0.300945,0 -0.298879,-71.999977 0,-72 z" />
    <path id="path2988" style="fill:#388c00" d="M 62.4,0 0,36 0,36 62.4,72 c 0,0 0.02874,-71.999977240587 0,-72 z" />
    <path id="path3180" style="fill:#3c9600" d="M 62.376794,72.005095 C 42.644373,58.943991 22.551707,46.242983 0,36 l 0,0 0.02308996,71.97025 C 1.223723,109.17038 64.033024,73.67117 62.376794,72.005095 z" />
    <path id="path3182" style="fill:#40a000" d="M 62.423396,71.994906 C 82.155817,85.05601 102.24848,97.757018 124.80019,108 l 0,0 -0.0231,-71.970249 c -1.20063,-1.20013 -64.009934,34.29908 -62.353704,35.965155 z" />
    <path id="path3174" style="fill:#3c9600" d="m 62.399973,0 62.399997,36 0,0 -62.399997,36 c -1.498971,-1.124229 -0.7564,-72.5457219 0,-72 z" />
    <path id="path4235" style="fill:#ffffff" d="m 75.693889,124.32017 c 0.05385,2.35475 -1.901446,4.52357 -4.247909,4.71723 -0.877559,2.59252 -4.202503,3.91986 -6.609219,2.56864 -0.961915,0.42979 -2.117323,2.31312 -3.758671,2.2376 -2.466095,0.41014 -4.997292,-1.47038 -5.333577,-3.94304 -2.860423,0.46598 -5.651853,-2.2059 -5.310653,-5.08335 -2.530744,-1.47418 -2.966175,-5.3515 -0.829998,-7.35106 0.693588,-1.11821 0.447258,-2.99322 1.761414,-3.95771 1.401192,-1.44579 3.755999,-1.81343 5.530006,-0.85832 0.756652,-0.82954 2.341399,-1.04589 2.844882,-1.63817 0.159149,-2.40819 0.340199,-4.85765 -0.302188,-7.21717 -0.13003,-0.9912 -1.135491,-2.64911 0.508304,-2.22752 1.55706,0 3.114118,0 4.671177,0 -0.506833,2.29876 -1.213014,4.65791 -0.672311,7.02219 -0.0803,0.8184 0.455437,1.33279 0.997256,1.83947 0.380552,0.39364 0.761104,0.78728 1.141655,1.18092 2.293525,-1.66107 5.893925,-0.66167 6.988001,1.95856 0.05982,1.4737 1.205525,1.78232 2.176267,2.64153 1.69776,1.68607 1.762267,4.66807 0.130772,6.42197 0.20548,0.53762 0.315349,1.11235 0.314792,1.68823 z m -17.70289,-10.88689 c 0.637061,0.6444 0.999424,1.76824 1.350219,0.40454 0.27606,-0.56358 0.960195,-1.59477 -0.309887,-0.97145 -0.368492,0.14525 -0.711565,0.34774 -1.040332,0.56691 z m 3.482155,-1.20472 c -0.873101,0.27771 -1.886236,2.33436 -1.639111,2.48585 0.913185,-0.72789 3.149828,0.26768 2.271427,-1.43702 -0.129338,-0.36165 -0.216446,-0.90135 -0.632316,-1.04883 z m 2.047489,-0.94964 c -1.312748,0.25353 -0.298601,2.66608 0.04399,3.40335 0.957051,0.48798 0.691323,-1.83938 1.674024,-2.30856 -0.513017,-0.44286 -1.059167,-0.89314 -1.718017,-1.09479 z" />
    <text id="text-top" style="font-size:15px" x="62" y="-86.592964" text-anchor="middle" transform="scale(1,-1)">###</text>
    <text id="text-middle" style="font-size:29px" x="62" y="-61.310406" text-anchor="middle" transform="scale(1,-1)">###</text>
    <text id="text-bottom" style="font-size:15px" x="62" y="-46.593002" text-anchor="middle" transform="scale(1,-1)">###</text>
  </g>
</svg>